<?xml version="1.0" encoding="UTF-8" standalone="no"?>
<!--
  Copyright (c) Colin M.L. Burnett.  All rights reserved.

  Used by ChessForge under the 3-clause BSD Licence, one of several licences
  the author offers this artwork under (GFDL 1.2+, CC BY-SA 3.0, GPL v2/v3,
  3-clause BSD).  Source: https://commons.wikimedia.org/wiki/File:Chess_klt45.svg

  Redistribution and use in source and binary forms, with or without
  modification, are permitted provided that the following conditions are met:
  redistributions of source code must retain this copyright notice, this list
  of conditions and the following disclaimer; redistributions in binary form
  must reproduce them in the documentation and/or other materials provided
  with the distribution; and neither the name of the copyright holder nor the
  names of its contributors may be used to endorse or promote products derived
  from this software without specific prior written permission.

  THIS SOFTWARE IS PROVIDED BY THE COPYRIGHT HOLDERS AND CONTRIBUTORS "AS IS"
  AND ANY EXPRESS OR IMPLIED WARRANTIES, INCLUDING, BUT NOT LIMITED TO, THE
  IMPLIED WARRANTIES OF MERCHANTABILITY AND FITNESS FOR A PARTICULAR PURPOSE
  ARE DISCLAIMED.  IN NO EVENT SHALL THE COPYRIGHT HOLDER OR CONTRIBUTORS BE
  LIABLE FOR ANY DIRECT, INDIRECT, INCIDENTAL, SPECIAL, EXEMPLARY, OR
  CONSEQUENTIAL DAMAGES HOWEVER CAUSED AND ON ANY THEORY OF LIABILITY, WHETHER
  IN CONTRACT, STRICT LIABILITY, OR TORT (INCLUDING NEGLIGENCE OR OTHERWISE)
  ARISING IN ANY WAY OUT OF THE USE OF THIS SOFTWARE, EVEN IF ADVISED OF THE
  POSSIBILITY OF SUCH DAMAGE.

  Change made by ChessForge: a viewBox="0 0 45 45" attribute was added so the
  artwork scales with the board.  The artwork itself is unmodified.
-->
<!DOCTYPE svg PUBLIC "-//W3C//DTD SVG 1.1//EN" "http://www.w3.org/Graphics/SVG/1.1/DTD/svg11.dtd">
<svg xmlns="http://www.w3.org/2000/svg" version="1.1" width="45" height="45" viewBox="0 0 45 45">
  <g style="fill:none; fill-opacity:1; fill-rule:evenodd; stroke:#000000; stroke-width:1.5; stroke-linecap:round;stroke-linejoin:round;stroke-miterlimit:4; stroke-dasharray:none; stroke-opacity:1;">
    <path d="M 22.5,11.63 L 22.5,6" style="fill:none; stroke:#000000; stroke-linejoin:miter;" id="path6570"/>
    <path d="M 22.5,25 C 22.5,25 27,17.5 25.5,14.5 C 25.5,14.5 24.5,12 22.5,12 C 20.5,12 19.5,14.5 19.5,14.5 C 18,17.5 22.5,25 22.5,25" style="fill:#000000;fill-opacity:1; stroke-linecap:butt; stroke-linejoin:miter;"/>
    <path d="M 12.5,37 C 18,40.5 27,40.5 32.5,37 L 32.5,30 C 32.5,30 41.5,25.5 38.5,19.5 C 34.5,13 25,16 22.5,23.5 L 22.5,27 L 22.5,23.5 C 20,16 10.5,13 6.5,19.5 C 3.5,25.5 12.5,30 12.5,30 L 12.5,37" style="fill:#000000; stroke:#000000;"/>
    <path d="M 20,8 L 25,8" style="fill:none; stroke:#000000; stroke-linejoin:miter;"/>
    <path d="M 32,29.5 C 32,29.5 40.5,25.5 38.03,19.85 C 34.15,14 25,18 22.5,24.5 L 22.5,26.6 L 22.5,24.5 C 20,18 10.85,14 6.97,19.85 C 4.5,25.5 13,29.5 13,29.5" style="fill:none; stroke:#ffffff;"/>
    <path d="M 12.5,30 C 18,27 27,27 32.5,30 M 12.5,33.5 C 18,30.5 27,30.5 32.5,33.5 M 12.5,37 C 18,34 27,34 32.5,37" style="fill:none; stroke:#ffffff;"/>
  </g>
</svg>
